<?xml version="1.0" encoding="UTF-8" standalone="no"?>
<svg width="152.047mm" height="110.772mm"
 viewBox="-10 -10 431 314"
 xmlns="http://www.w3.org/2000/svg" xmlns:xlink="http://www.w3.org/1999/xlink"  version="1.2" baseProfile="tiny">
<title>CrcGenerator</title>
<desc>Block converted from VHDL to svg with entity-block.</desc>
<defs>
<linearGradient gradientUnits="userSpaceOnUse" x1="45" y1="0" x2="379" y2="0" id="gradient1">
    <stop offset="0" stop-color="#014040" stop-opacity="1" />
    <stop offset="1" stop-color="#7f7f7f" stop-opacity="1" />
</linearGradient>
</defs>
<g fill="none" stroke="black" stroke-width="1" fill-rule="evenodd" stroke-linecap="square" stroke-linejoin="bevel" >

<g fill="none" stroke="#000000" stroke-opacity="1" stroke-width="1" stroke-linecap="square" stroke-linejoin="bevel" transform="matrix(1,0,0,1,0,0)"
font-family="Ubuntu" font-size="10" font-weight="400" font-style="normal" 
>
</g>

<g fill="none" stroke="#008000" stroke-opacity="1" stroke-width="1" stroke-linecap="square" stroke-linejoin="bevel" transform="matrix(1,0,0,1,0,0)"
font-family="Ubuntu" font-size="8" font-weight="400" font-style="normal" 
>
</g>

<g fill="none" stroke="#000000" stroke-opacity="1" stroke-width="1" stroke-linecap="square" stroke-linejoin="bevel" transform="matrix(1,0,0,1,0,0)"
font-family="Ubuntu" font-size="10" font-weight="400" font-style="normal" 
>
</g>

<g fill="none" stroke="#008000" stroke-opacity="1" stroke-width="1" stroke-linecap="square" stroke-linejoin="bevel" transform="matrix(1,0,0,1,0,0)"
font-family="Ubuntu" font-size="8" font-weight="400" font-style="normal" 
>
</g>

<g fill="none" stroke="#000000" stroke-opacity="1" stroke-width="1" stroke-linecap="square" stroke-linejoin="bevel" transform="matrix(1,0,0,1,0,0)"
font-family="Ubuntu" font-size="10" font-weight="400" font-style="normal" 
>
</g>

<g fill="none" stroke="#008000" stroke-opacity="1" stroke-width="1" stroke-linecap="square" stroke-linejoin="bevel" transform="matrix(1,0,0,1,0,0)"
font-family="Ubuntu" font-size="8" font-weight="400" font-style="normal" 
>
</g>

<g fill="none" stroke="#000000" stroke-opacity="1" stroke-width="1" stroke-linecap="square" stroke-linejoin="bevel" transform="matrix(1,0,0,1,0,0)"
font-family="Ubuntu" font-size="10" font-weight="400" font-style="normal" 
>
</g>

<g fill="none" stroke="#008000" stroke-opacity="1" stroke-width="1" stroke-linecap="square" stroke-linejoin="bevel" transform="matrix(1,0,0,1,0,0)"
font-family="Ubuntu" font-size="8" font-weight="400" font-style="normal" 
>
</g>

<g fill="none" stroke="#000000" stroke-opacity="1" stroke-width="1" stroke-linecap="square" stroke-linejoin="bevel" transform="matrix(1,0,0,1,0,0)"
font-family="Ubuntu" font-size="10" font-weight="400" font-style="normal" 
>
</g>

<g fill="none" stroke="#008000" stroke-opacity="1" stroke-width="1" stroke-linecap="square" stroke-linejoin="bevel" transform="matrix(1,0,0,1,0,0)"
font-family="Ubuntu" font-size="8" font-weight="400" font-style="normal" 
>
</g>

<g fill="none" stroke="#000000" stroke-opacity="1" stroke-width="1" stroke-linecap="square" stroke-linejoin="bevel" transform="matrix(1,0,0,1,0,0)"
font-family="Ubuntu" font-size="10" font-weight="400" font-style="normal" 
>
</g>

<g fill="none" stroke="#008000" stroke-opacity="1" stroke-width="1" stroke-linecap="square" stroke-linejoin="bevel" transform="matrix(1,0,0,1,0,0)"
font-family="Ubuntu" font-size="8" font-weight="400" font-style="normal" 
>
</g>

<g fill="none" stroke="#000080" stroke-opacity="1" stroke-width="1" stroke-linecap="square" stroke-linejoin="bevel" transform="matrix(1,0,0,1,0,0)"
font-family="Ubuntu" font-size="10" font-weight="400" font-style="normal" 
>
</g>

<g fill="none" stroke="#000000" stroke-opacity="1" stroke-width="1" stroke-linecap="square" stroke-linejoin="bevel" transform="matrix(1,0,0,1,0,0)"
font-family="Ubuntu" font-size="10" font-weight="400" font-style="normal" 
>
</g>

<g fill="none" stroke="#008000" stroke-opacity="1" stroke-width="1" stroke-linecap="square" stroke-linejoin="bevel" transform="matrix(1,0,0,1,0,0)"
font-family="Ubuntu" font-size="8" font-weight="400" font-style="normal" 
>
</g>

<g fill="none" stroke="#000080" stroke-opacity="1" stroke-width="1" stroke-linecap="square" stroke-linejoin="bevel" transform="matrix(1,0,0,1,0,0)"
font-family="Ubuntu" font-size="10" font-weight="400" font-style="normal" 
>
</g>

<g fill="none" stroke="#000000" stroke-opacity="1" stroke-width="1" stroke-linecap="square" stroke-linejoin="bevel" transform="matrix(1,0,0,1,0,0)"
font-family="Ubuntu" font-size="10" font-weight="400" font-style="normal" 
>
</g>

<g fill="none" stroke="#008000" stroke-opacity="1" stroke-width="1" stroke-linecap="square" stroke-linejoin="bevel" transform="matrix(1,0,0,1,0,0)"
font-family="Ubuntu" font-size="8" font-weight="400" font-style="normal" 
>
</g>

<g fill="none" stroke="#000080" stroke-opacity="1" stroke-width="1" stroke-linecap="square" stroke-linejoin="bevel" transform="matrix(1,0,0,1,0,0)"
font-family="Ubuntu" font-size="10" font-weight="400" font-style="normal" 
>
</g>

<g fill="none" stroke="#000000" stroke-opacity="1" stroke-width="1" stroke-linecap="square" stroke-linejoin="bevel" transform="matrix(1,0,0,1,0,0)"
font-family="Ubuntu" font-size="10" font-weight="400" font-style="normal" 
>
</g>

<g fill="none" stroke="#008000" stroke-opacity="1" stroke-width="1" stroke-linecap="square" stroke-linejoin="bevel" transform="matrix(1,0,0,1,0,0)"
font-family="Ubuntu" font-size="8" font-weight="400" font-style="normal" 
>
</g>

<g fill="none" stroke="#000080" stroke-opacity="1" stroke-width="1" stroke-linecap="square" stroke-linejoin="bevel" transform="matrix(1,0,0,1,0,0)"
font-family="Ubuntu" font-size="10" font-weight="400" font-style="normal" 
>
</g>

<g fill="none" stroke="#000000" stroke-opacity="1" stroke-width="1" stroke-linecap="square" stroke-linejoin="bevel" transform="matrix(1,0,0,1,0,0)"
font-family="Ubuntu" font-size="10" font-weight="400" font-style="normal" 
>
</g>

<g fill="none" stroke="#008000" stroke-opacity="1" stroke-width="1" stroke-linecap="square" stroke-linejoin="bevel" transform="matrix(1,0,0,1,0,0)"
font-family="Ubuntu" font-size="8" font-weight="400" font-style="normal" 
>
</g>

<g fill="none" stroke="#000080" stroke-opacity="1" stroke-width="1" stroke-linecap="square" stroke-linejoin="bevel" transform="matrix(1,0,0,1,0,0)"
font-family="Ubuntu" font-size="10" font-weight="400" font-style="normal" 
>
</g>

<g fill="none" stroke="#000000" stroke-opacity="1" stroke-width="1" stroke-linecap="square" stroke-linejoin="bevel" transform="matrix(1,0,0,1,0,0)"
font-family="Ubuntu" font-size="10" font-weight="400" font-style="normal" 
>
</g>

<g fill="none" stroke="#008000" stroke-opacity="1" stroke-width="1" stroke-linecap="square" stroke-linejoin="bevel" transform="matrix(1,0,0,1,0,0)"
font-family="Ubuntu" font-size="8" font-weight="400" font-style="normal" 
>
</g>

<g fill="none" stroke="#000080" stroke-opacity="1" stroke-width="1" stroke-linecap="square" stroke-linejoin="bevel" transform="matrix(1,0,0,1,0,0)"
font-family="Ubuntu" font-size="10" font-weight="400" font-style="normal" 
>
</g>

<g fill="none" stroke="#000000" stroke-opacity="1" stroke-width="1" stroke-linecap="square" stroke-linejoin="bevel" transform="matrix(1,0,0,1,0,0)"
font-family="Ubuntu" font-size="10" font-weight="400" font-style="normal" 
>
</g>

<g fill="none" stroke="#008000" stroke-opacity="1" stroke-width="1" stroke-linecap="square" stroke-linejoin="bevel" transform="matrix(1,0,0,1,0,0)"
font-family="Ubuntu" font-size="8" font-weight="400" font-style="normal" 
>
</g>

<g fill="none" stroke="#000080" stroke-opacity="1" stroke-width="1" stroke-linecap="square" stroke-linejoin="bevel" transform="matrix(1,0,0,1,0,0)"
font-family="Ubuntu" font-size="10" font-weight="400" font-style="normal" 
>
</g>

<g fill="none" stroke="#ffffff" stroke-opacity="1" stroke-width="1" stroke-linecap="square" stroke-linejoin="bevel" transform="matrix(1,0,0,1,0,0)"
font-family="Ubuntu" font-size="12" font-weight="400" font-style="normal" 
>
</g>

<g fill="#ffffff" fill-opacity="0" stroke="none" transform="matrix(1,0,0,1,0,0)"
font-family="Ubuntu" font-size="12" font-weight="400" font-style="normal" 
>
<path vector-effect="none" fill-rule="evenodd" d="M50,13 C50,7.47715 54.4772,3 60,3 L374,3 C379.523,3 384,7.47715 384,13 L384,287 C384,292.523 379.523,297 374,297 L60,297 C54.4772,297 50,292.523 50,287 L50,13"/>
</g>

<g fill="#fffff3" fill-opacity="1" stroke="none" transform="matrix(1,0,0,1,0,0)"
font-family="Ubuntu" font-size="12" font-weight="400" font-style="normal" 
>
<path vector-effect="none" fill-rule="evenodd" d="M45,10 C45,4.47715 49.4772,0 55,0 L369,0 C374.523,0 379,4.47715 379,10 L379,284 C379,289.523 374.523,294 369,294 L55,294 C49.4772,294 45,289.523 45,284 L45,10"/>
</g>

<g fill="none" stroke="#235676" stroke-opacity="1" stroke-width="2" stroke-linecap="round" stroke-linejoin="round" transform="matrix(1,0,0,1,0,0)"
font-family="Ubuntu" font-size="12" font-weight="400" font-style="normal" 
>
<path vector-effect="none" fill-rule="evenodd" d="M45,10 C45,4.47715 49.4772,0 55,0 L369,0 C374.523,0 379,4.47715 379,10 L379,284 C379,289.523 374.523,294 369,294 L55,294 C49.4772,294 45,289.523 45,284 L45,10"/>
</g>

<g fill="url(#gradient1)" stroke="none" transform="matrix(1,0,0,1,0,0)"
font-family="Ubuntu" font-size="12" font-weight="400" font-style="normal" 
>
<path vector-effect="none" fill-rule="evenodd" d="M55,0 C49.4772,0 45,4.47715 45,10 L45,15 L379,15 L379,10 C379,4.47715 374.523,0 369,0 L55,0"/>
</g>

<g fill="none" stroke="#235676" stroke-opacity="1" stroke-width="2" stroke-linecap="round" stroke-linejoin="round" transform="matrix(1,0,0,1,0,0)"
font-family="Ubuntu" font-size="12" font-weight="400" font-style="normal" 
>
<path vector-effect="none" fill-rule="evenodd" d="M55,0 C49.4772,0 45,4.47715 45,10 L45,15 L379,15 L379,10 C379,4.47715 374.523,0 369,0 L55,0"/>
<polyline fill="none" vector-effect="none" points="45,169 379,169 " />
</g>

<g fill="none" stroke="#ffffff" stroke-opacity="1" stroke-width="1" stroke-linecap="square" stroke-linejoin="bevel" transform="matrix(1,0,0,1,0,0)"
font-family="Ubuntu" font-size="12" font-weight="400" font-style="normal" 
>
<text fill="#ffffff" fill-opacity="1" stroke="none" xml:space="preserve" x="175.391" y="12" font-family="Ubuntu" font-size="12" font-weight="400" font-style="normal" 
 >CrcGenerator</text>
</g>

<g fill="none" stroke="#000000" stroke-opacity="1" stroke-width="1" stroke-linecap="square" stroke-linejoin="bevel" transform="matrix(1,0,0,1,0,0)"
font-family="Ubuntu" font-size="10" font-weight="400" font-style="normal" 
>
<text fill="#000000" fill-opacity="1" stroke="none" xml:space="preserve" x="23.6875" y="30" font-family="Ubuntu" font-size="10" font-weight="400" font-style="normal" 
 >en</text>
</g>

<g fill="none" stroke="#008000" stroke-opacity="1" stroke-width="1" stroke-linecap="square" stroke-linejoin="bevel" transform="matrix(1,0,0,1,0,0)"
font-family="Ubuntu" font-size="8" font-weight="400" font-style="normal" 
>
<text fill="#008000" fill-opacity="1" stroke="none" xml:space="preserve" x="55" y="35" font-family="Ubuntu" font-size="8" font-weight="400" font-style="normal" 
 >Include byte in</text>
</g>

<g fill="none" stroke="#000080" stroke-opacity="1" stroke-width="1" stroke-linecap="square" stroke-linejoin="bevel" transform="matrix(1,0,0,1,0,0)"
font-family="Ubuntu" font-size="10" font-weight="400" font-style="normal" 
>
<text fill="#000080" fill-opacity="1" stroke="none" xml:space="preserve" x="55" y="25" font-family="Ubuntu" font-size="10" font-weight="400" font-style="normal" 
 >std_logic</text>
</g>

<g fill="none" stroke="#235676" stroke-opacity="1" stroke-width="2" stroke-linecap="round" stroke-linejoin="round" transform="matrix(1,0,0,1,0,0)"
font-family="Ubuntu" font-size="10" font-weight="400" font-style="normal" 
>
<path vector-effect="none" fill-rule="evenodd" d="M40,21 L40,31 L50,26 L40,21"/>
</g>

<g fill="#235676" fill-opacity="1" stroke="none" transform="matrix(1,0,0,1,0,0)"
font-family="Ubuntu" font-size="10" font-weight="400" font-style="normal" 
>
<path vector-effect="none" fill-rule="evenodd" d="M40,21 L40,31 L50,26 L40,21"/>
</g>

<g fill="none" stroke="#000000" stroke-opacity="1" stroke-width="1" stroke-linecap="square" stroke-linejoin="bevel" transform="matrix(1,0,0,1,0,0)"
font-family="Ubuntu" font-size="10" font-weight="400" font-style="normal" 
>
<text fill="#000000" fill-opacity="1" stroke="none" xml:space="preserve" x="20.875" y="52" font-family="Ubuntu" font-size="10" font-weight="400" font-style="normal" 
 >din</text>
</g>

<g fill="none" stroke="#008000" stroke-opacity="1" stroke-width="1" stroke-linecap="square" stroke-linejoin="bevel" transform="matrix(1,0,0,1,0,0)"
font-family="Ubuntu" font-size="8" font-weight="400" font-style="normal" 
>
<text fill="#008000" fill-opacity="1" stroke="none" xml:space="preserve" x="55" y="57" font-family="Ubuntu" font-size="8" font-weight="400" font-style="normal" 
 >Input byte</text>
</g>

<g fill="none" stroke="#000080" stroke-opacity="1" stroke-width="1" stroke-linecap="square" stroke-linejoin="bevel" transform="matrix(1,0,0,1,0,0)"
font-family="Ubuntu" font-size="10" font-weight="400" font-style="normal" 
>
<text fill="#000080" fill-opacity="1" stroke="none" xml:space="preserve" x="55" y="47" font-family="Ubuntu" font-size="10" font-weight="400" font-style="normal" 
 >std_logic_vector (7 downto 0)</text>
</g>

<g fill="none" stroke="#235676" stroke-opacity="1" stroke-width="2" stroke-linecap="round" stroke-linejoin="round" transform="matrix(1,0,0,1,0,0)"
font-family="Ubuntu" font-size="10" font-weight="400" font-style="normal" 
>
<path vector-effect="none" fill-rule="evenodd" d="M40,43 L40,53 L50,48 L40,43"/>
</g>

<g fill="#235676" fill-opacity="1" stroke="none" transform="matrix(1,0,0,1,0,0)"
font-family="Ubuntu" font-size="10" font-weight="400" font-style="normal" 
>
<path vector-effect="none" fill-rule="evenodd" d="M40,43 L40,53 L50,48 L40,43"/>
</g>

<g fill="none" stroke="#000000" stroke-opacity="1" stroke-width="1" stroke-linecap="square" stroke-linejoin="bevel" transform="matrix(1,0,0,1,0,0)"
font-family="Ubuntu" font-size="10" font-weight="400" font-style="normal" 
>
<text fill="#000000" fill-opacity="1" stroke="none" xml:space="preserve" x="0.875" y="96" font-family="Ubuntu" font-size="10" font-weight="400" font-style="normal" 
 >reset_n</text>
</g>

<g fill="none" stroke="#008000" stroke-opacity="1" stroke-width="1" stroke-linecap="square" stroke-linejoin="bevel" transform="matrix(1,0,0,1,0,0)"
font-family="Ubuntu" font-size="8" font-weight="400" font-style="normal" 
>
<text fill="#008000" fill-opacity="1" stroke="none" xml:space="preserve" x="55" y="101" font-family="Ubuntu" font-size="8" font-weight="400" font-style="normal" 
 >asynchronous reset (active low)</text>
</g>

<g fill="none" stroke="#000080" stroke-opacity="1" stroke-width="1" stroke-linecap="square" stroke-linejoin="bevel" transform="matrix(1,0,0,1,0,0)"
font-family="Ubuntu" font-size="10" font-weight="400" font-style="normal" 
>
<text fill="#000080" fill-opacity="1" stroke="none" xml:space="preserve" x="55" y="91" font-family="Ubuntu" font-size="10" font-weight="400" font-style="normal" 
 >std_logic</text>
</g>

<g fill="none" stroke="#235676" stroke-opacity="1" stroke-width="2" stroke-linecap="round" stroke-linejoin="round" transform="matrix(1,0,0,1,0,0)"
font-family="Ubuntu" font-size="10" font-weight="400" font-style="normal" 
>
<path vector-effect="none" fill-rule="evenodd" d="M40,87 L40,97 L50,92 L40,87"/>
</g>

<g fill="#235676" fill-opacity="1" stroke="none" transform="matrix(1,0,0,1,0,0)"
font-family="Ubuntu" font-size="10" font-weight="400" font-style="normal" 
>
<path vector-effect="none" fill-rule="evenodd" d="M40,87 L40,97 L50,92 L40,87"/>
</g>

<g fill="none" stroke="#000000" stroke-opacity="1" stroke-width="1" stroke-linecap="square" stroke-linejoin="bevel" transform="matrix(1,0,0,1,0,0)"
font-family="Ubuntu" font-size="10" font-weight="400" font-style="normal" 
>
<text fill="#000000" fill-opacity="1" stroke="none" xml:space="preserve" x="4.64063" y="118" font-family="Ubuntu" font-size="10" font-weight="400" font-style="normal" 
 >sReset</text>
</g>

<g fill="none" stroke="#008000" stroke-opacity="1" stroke-width="1" stroke-linecap="square" stroke-linejoin="bevel" transform="matrix(1,0,0,1,0,0)"
font-family="Ubuntu" font-size="8" font-weight="400" font-style="normal" 
>
<text fill="#008000" fill-opacity="1" stroke="none" xml:space="preserve" x="55" y="123" font-family="Ubuntu" font-size="8" font-weight="400" font-style="normal" 
 >synchronous reset to restart CRC</text>
</g>

<g fill="none" stroke="#000080" stroke-opacity="1" stroke-width="1" stroke-linecap="square" stroke-linejoin="bevel" transform="matrix(1,0,0,1,0,0)"
font-family="Ubuntu" font-size="10" font-weight="400" font-style="normal" 
>
<text fill="#000080" fill-opacity="1" stroke="none" xml:space="preserve" x="55" y="113" font-family="Ubuntu" font-size="10" font-weight="400" font-style="normal" 
 >std_logic</text>
</g>

<g fill="none" stroke="#235676" stroke-opacity="1" stroke-width="2" stroke-linecap="round" stroke-linejoin="round" transform="matrix(1,0,0,1,0,0)"
font-family="Ubuntu" font-size="10" font-weight="400" font-style="normal" 
>
<path vector-effect="none" fill-rule="evenodd" d="M40,109 L40,119 L50,114 L40,109"/>
</g>

<g fill="#235676" fill-opacity="1" stroke="none" transform="matrix(1,0,0,1,0,0)"
font-family="Ubuntu" font-size="10" font-weight="400" font-style="normal" 
>
<path vector-effect="none" fill-rule="evenodd" d="M40,109 L40,119 L50,114 L40,109"/>
</g>

<g fill="none" stroke="#000000" stroke-opacity="1" stroke-width="1" stroke-linecap="square" stroke-linejoin="bevel" transform="matrix(1,0,0,1,0,0)"
font-family="Ubuntu" font-size="10" font-weight="400" font-style="normal" 
>
<text fill="#000000" fill-opacity="1" stroke="none" xml:space="preserve" x="22.4219" y="162" font-family="Ubuntu" font-size="10" font-weight="400" font-style="normal" 
 >clk</text>
</g>

<g fill="none" stroke="#008000" stroke-opacity="1" stroke-width="1" stroke-linecap="square" stroke-linejoin="bevel" transform="matrix(1,0,0,1,0,0)"
font-family="Ubuntu" font-size="8" font-weight="400" font-style="normal" 
>
<text fill="#008000" fill-opacity="1" stroke="none" xml:space="preserve" x="55" y="167" font-family="Ubuntu" font-size="8" font-weight="400" font-style="normal" 
 >125 MHz ethernet clock</text>
</g>

<g fill="none" stroke="#000080" stroke-opacity="1" stroke-width="1" stroke-linecap="square" stroke-linejoin="bevel" transform="matrix(1,0,0,1,0,0)"
font-family="Ubuntu" font-size="10" font-weight="400" font-style="normal" 
>
<text fill="#000080" fill-opacity="1" stroke="none" xml:space="preserve" x="55" y="157" font-family="Ubuntu" font-size="10" font-weight="400" font-style="normal" 
 >std_logic</text>
</g>

<g fill="none" stroke="#235676" stroke-opacity="1" stroke-width="2" stroke-linecap="round" stroke-linejoin="round" transform="matrix(1,0,0,1,0,0)"
font-family="Ubuntu" font-size="10" font-weight="400" font-style="normal" 
>
<path vector-effect="none" fill-rule="evenodd" d="M40,153 L40,163 L50,158 L40,153"/>
</g>

<g fill="#235676" fill-opacity="1" stroke="none" transform="matrix(1,0,0,1,0,0)"
font-family="Ubuntu" font-size="10" font-weight="400" font-style="normal" 
>
<path vector-effect="none" fill-rule="evenodd" d="M40,153 L40,163 L50,158 L40,153"/>
</g>

<g fill="none" stroke="#000000" stroke-opacity="1" stroke-width="1" stroke-linecap="square" stroke-linejoin="bevel" transform="matrix(1,0,0,1,0,0)"
font-family="Ubuntu" font-size="10" font-weight="400" font-style="normal" 
>
<text fill="#000000" fill-opacity="1" stroke="none" xml:space="preserve" x="389" y="30" font-family="Ubuntu" font-size="10" font-weight="400" font-style="normal" 
 >dv</text>
</g>

<g fill="none" stroke="#008000" stroke-opacity="1" stroke-width="1" stroke-linecap="square" stroke-linejoin="bevel" transform="matrix(1,0,0,1,0,0)"
font-family="Ubuntu" font-size="8" font-weight="400" font-style="normal" 
>
<text fill="#008000" fill-opacity="1" stroke="none" xml:space="preserve" x="301.297" y="35" font-family="Ubuntu" font-size="8" font-weight="400" font-style="normal" 
 >CRC valid indicator</text>
</g>

<g fill="none" stroke="#000080" stroke-opacity="1" stroke-width="1" stroke-linecap="square" stroke-linejoin="bevel" transform="matrix(1,0,0,1,0,0)"
font-family="Ubuntu" font-size="10" font-weight="400" font-style="normal" 
>
<text fill="#000080" fill-opacity="1" stroke="none" xml:space="preserve" x="328.359" y="25" font-family="Ubuntu" font-size="10" font-weight="400" font-style="normal" 
 >std_logic</text>
</g>

<g fill="none" stroke="#235676" stroke-opacity="1" stroke-width="2" stroke-linecap="round" stroke-linejoin="round" transform="matrix(1,0,0,1,0,0)"
font-family="Ubuntu" font-size="10" font-weight="400" font-style="normal" 
>
<path vector-effect="none" fill-rule="evenodd" d="M374,21 L374,31 L384,26 L374,21"/>
</g>

<g fill="#235676" fill-opacity="1" stroke="none" transform="matrix(1,0,0,1,0,0)"
font-family="Ubuntu" font-size="10" font-weight="400" font-style="normal" 
>
<path vector-effect="none" fill-rule="evenodd" d="M374,21 L374,31 L384,26 L374,21"/>
</g>

<g fill="none" stroke="#000000" stroke-opacity="1" stroke-width="1" stroke-linecap="square" stroke-linejoin="bevel" transform="matrix(1,0,0,1,0,0)"
font-family="Ubuntu" font-size="10" font-weight="400" font-style="normal" 
>
<text fill="#000000" fill-opacity="1" stroke="none" xml:space="preserve" x="389" y="52" font-family="Ubuntu" font-size="10" font-weight="400" font-style="normal" 
 >dout</text>
</g>

<g fill="none" stroke="#008000" stroke-opacity="1" stroke-width="1" stroke-linecap="square" stroke-linejoin="bevel" transform="matrix(1,0,0,1,0,0)"
font-family="Ubuntu" font-size="8" font-weight="400" font-style="normal" 
>
<text fill="#008000" fill-opacity="1" stroke="none" xml:space="preserve" x="327.328" y="57" font-family="Ubuntu" font-size="8" font-weight="400" font-style="normal" 
 >CRC output</text>
</g>

<g fill="none" stroke="#000080" stroke-opacity="1" stroke-width="1" stroke-linecap="square" stroke-linejoin="bevel" transform="matrix(1,0,0,1,0,0)"
font-family="Ubuntu" font-size="10" font-weight="400" font-style="normal" 
>
<text fill="#000080" fill-opacity="1" stroke="none" xml:space="preserve" x="229.594" y="47" font-family="Ubuntu" font-size="10" font-weight="400" font-style="normal" 
 >std_logic_vector (31 downto 0)</text>
</g>

<g fill="none" stroke="#235676" stroke-opacity="1" stroke-width="2" stroke-linecap="round" stroke-linejoin="round" transform="matrix(1,0,0,1,0,0)"
font-family="Ubuntu" font-size="10" font-weight="400" font-style="normal" 
>
<path vector-effect="none" fill-rule="evenodd" d="M374,43 L374,53 L384,48 L374,43"/>
</g>

<g fill="#235676" fill-opacity="1" stroke="none" transform="matrix(1,0,0,1,0,0)"
font-family="Ubuntu" font-size="10" font-weight="400" font-style="normal" 
>
<path vector-effect="none" fill-rule="evenodd" d="M374,43 L374,53 L384,48 L374,43"/>
</g>

<g fill="none" stroke="#000080" stroke-opacity="1" stroke-width="1" stroke-linecap="square" stroke-linejoin="bevel" transform="matrix(1,0,0,1,0,0)"
font-family="Ubuntu" font-size="10" font-weight="400" font-style="normal" 
>
<text fill="#000080" fill-opacity="1" stroke="none" xml:space="preserve" x="55" y="179" font-family="Ubuntu" font-size="10" font-weight="400" font-style="normal" 
 >REVERSEINPUT : std_logic := '1'</text>
</g>

<g fill="none" stroke="#008000" stroke-opacity="1" stroke-width="1" stroke-linecap="square" stroke-linejoin="bevel" transform="matrix(1,0,0,1,0,0)"
font-family="Ubuntu" font-size="8" font-weight="400" font-style="normal" 
>
</g>

<g fill="none" stroke="#008000" stroke-opacity="1" stroke-width="1" stroke-linecap="square" stroke-linejoin="bevel" transform="matrix(1,0,0,1,0,0)"
font-family="Ubuntu" font-size="8" font-weight="400" font-style="normal" 
>
<text fill="#008000" fill-opacity="1" stroke="none" xml:space="preserve" x="55" y="189" font-family="Ubuntu" font-size="8" font-weight="400" font-style="normal" 
 >Reverse 8 bits in input byte</text>
</g>

<g fill="none" stroke="#008000" stroke-opacity="1" stroke-width="1" stroke-linecap="square" stroke-linejoin="bevel" transform="matrix(1,0,0,1,0,0)"
font-family="Ubuntu" font-size="8" font-weight="400" font-style="normal" 
>
</g>

<g fill="none" stroke="#000080" stroke-opacity="1" stroke-width="1" stroke-linecap="square" stroke-linejoin="bevel" transform="matrix(1,0,0,1,0,0)"
font-family="Ubuntu" font-size="10" font-weight="400" font-style="normal" 
>
<text fill="#000080" fill-opacity="1" stroke="none" xml:space="preserve" x="55" y="201" font-family="Ubuntu" font-size="10" font-weight="400" font-style="normal" 
 >REVERSEOUTPUT : std_logic := '1'</text>
</g>

<g fill="none" stroke="#008000" stroke-opacity="1" stroke-width="1" stroke-linecap="square" stroke-linejoin="bevel" transform="matrix(1,0,0,1,0,0)"
font-family="Ubuntu" font-size="8" font-weight="400" font-style="normal" 
>
</g>

<g fill="none" stroke="#008000" stroke-opacity="1" stroke-width="1" stroke-linecap="square" stroke-linejoin="bevel" transform="matrix(1,0,0,1,0,0)"
font-family="Ubuntu" font-size="8" font-weight="400" font-style="normal" 
>
<text fill="#008000" fill-opacity="1" stroke="none" xml:space="preserve" x="55" y="211" font-family="Ubuntu" font-size="8" font-weight="400" font-style="normal" 
 >Reverse 32 bits in CRC output</text>
</g>

<g fill="none" stroke="#008000" stroke-opacity="1" stroke-width="1" stroke-linecap="square" stroke-linejoin="bevel" transform="matrix(1,0,0,1,0,0)"
font-family="Ubuntu" font-size="8" font-weight="400" font-style="normal" 
>
</g>

<g fill="none" stroke="#000080" stroke-opacity="1" stroke-width="1" stroke-linecap="square" stroke-linejoin="bevel" transform="matrix(1,0,0,1,0,0)"
font-family="Ubuntu" font-size="10" font-weight="400" font-style="normal" 
>
<text fill="#000080" fill-opacity="1" stroke="none" xml:space="preserve" x="55" y="223" font-family="Ubuntu" font-size="10" font-weight="400" font-style="normal" 
 >INITVAL : std_logic_vector(31 downto 0) := X&quot;FFFFFFFF&quot;</text>
</g>

<g fill="none" stroke="#008000" stroke-opacity="1" stroke-width="1" stroke-linecap="square" stroke-linejoin="bevel" transform="matrix(1,0,0,1,0,0)"
font-family="Ubuntu" font-size="8" font-weight="400" font-style="normal" 
>
</g>

<g fill="none" stroke="#008000" stroke-opacity="1" stroke-width="1" stroke-linecap="square" stroke-linejoin="bevel" transform="matrix(1,0,0,1,0,0)"
font-family="Ubuntu" font-size="8" font-weight="400" font-style="normal" 
>
<text fill="#008000" fill-opacity="1" stroke="none" xml:space="preserve" x="55" y="233" font-family="Ubuntu" font-size="8" font-weight="400" font-style="normal" 
 >Initial value of the CRC when sReset</text>
</g>

<g fill="none" stroke="#008000" stroke-opacity="1" stroke-width="1" stroke-linecap="square" stroke-linejoin="bevel" transform="matrix(1,0,0,1,0,0)"
font-family="Ubuntu" font-size="8" font-weight="400" font-style="normal" 
>
</g>

<g fill="none" stroke="#000080" stroke-opacity="1" stroke-width="1" stroke-linecap="square" stroke-linejoin="bevel" transform="matrix(1,0,0,1,0,0)"
font-family="Ubuntu" font-size="10" font-weight="400" font-style="normal" 
>
<text fill="#000080" fill-opacity="1" stroke="none" xml:space="preserve" x="55" y="245" font-family="Ubuntu" font-size="10" font-weight="400" font-style="normal" 
 >FINALXOR : std_logic_vector(31 downto 0) := X&quot;FFFFFFFF&quot;</text>
</g>

<g fill="none" stroke="#008000" stroke-opacity="1" stroke-width="1" stroke-linecap="square" stroke-linejoin="bevel" transform="matrix(1,0,0,1,0,0)"
font-family="Ubuntu" font-size="8" font-weight="400" font-style="normal" 
>
</g>

<g fill="none" stroke="#008000" stroke-opacity="1" stroke-width="1" stroke-linecap="square" stroke-linejoin="bevel" transform="matrix(1,0,0,1,0,0)"
font-family="Ubuntu" font-size="8" font-weight="400" font-style="normal" 
>
<text fill="#008000" fill-opacity="1" stroke="none" xml:space="preserve" x="55" y="255" font-family="Ubuntu" font-size="8" font-weight="400" font-style="normal" 
 >Set to FFFFFFFF to invert CRC output</text>
</g>

<g fill="none" stroke="#008000" stroke-opacity="1" stroke-width="1" stroke-linecap="square" stroke-linejoin="bevel" transform="matrix(1,0,0,1,0,0)"
font-family="Ubuntu" font-size="8" font-weight="400" font-style="normal" 
>
</g>

<g fill="none" stroke="#000080" stroke-opacity="1" stroke-width="1" stroke-linecap="square" stroke-linejoin="bevel" transform="matrix(1,0,0,1,0,0)"
font-family="Ubuntu" font-size="10" font-weight="400" font-style="normal" 
>
<text fill="#000080" fill-opacity="1" stroke="none" xml:space="preserve" x="55" y="267" font-family="Ubuntu" font-size="10" font-weight="400" font-style="normal" 
 >POLYNOMIAL : std_logic_vector(31 downto 0) := X&quot;04C11DB7&quot;</text>
</g>

<g fill="none" stroke="#008000" stroke-opacity="1" stroke-width="1" stroke-linecap="square" stroke-linejoin="bevel" transform="matrix(1,0,0,1,0,0)"
font-family="Ubuntu" font-size="8" font-weight="400" font-style="normal" 
>
</g>

<g fill="none" stroke="#008000" stroke-opacity="1" stroke-width="1" stroke-linecap="square" stroke-linejoin="bevel" transform="matrix(1,0,0,1,0,0)"
font-family="Ubuntu" font-size="8" font-weight="400" font-style="normal" 
>
<text fill="#008000" fill-opacity="1" stroke="none" xml:space="preserve" x="55" y="277" font-family="Ubuntu" font-size="8" font-weight="400" font-style="normal" 
 >Generator polynomial is</text>
</g>

<g fill="none" stroke="#008000" stroke-opacity="1" stroke-width="1" stroke-linecap="square" stroke-linejoin="bevel" transform="matrix(1,0,0,1,0,0)"
font-family="Ubuntu" font-size="8" font-weight="400" font-style="normal" 
>
</g>
</g>
</svg>
